<?xml version="1.0" encoding="utf-8"?>
<!-- Generator: Adobe Illustrator 27.0.0, SVG Export Plug-In . SVG Version: 6.00 Build 0)  -->
<svg version="1.1" id="Layer_1" xmlns="http://www.w3.org/2000/svg" xmlns:xlink="http://www.w3.org/1999/xlink" x="0px" y="0px"
	 viewBox="0 0 64 80" style="enable-background:new 0 0 64 80;" xml:space="preserve">
<path d="M24.9,51.4c-0.9,0-1.7-0.3-2.4-0.8c-1.1-1-1.6-2.5-1.4-3.9c0.2-1.7,0.9-3.2,2-4.5c2.4-3,6-4.1,8.1-2.4
	c2.1,1.7,1.9,5.4-0.6,8.4c-1,1.3-2.4,2.3-4,2.9C26,51.3,25.5,51.4,24.9,51.4z M28.7,40.9c-1.7,0.2-3.2,1.1-4.1,2.5
	c-0.8,1-1.4,2.2-1.5,3.5c-0.1,0.8,0.1,1.6,0.7,2.2c0.7,0.4,1.5,0.5,2.3,0.2c1.2-0.5,2.3-1.2,3-2.2c1.7-2.1,2.1-4.7,0.9-5.6
	C29.6,41.1,29.2,40.9,28.7,40.9z"/>
<path d="M23.1,50.8c-0.6,0-1-0.4-1-1c0-0.5,0.3-0.9,0.8-1c1.7-0.4,2.9-1.9,2.9-3.7c0.1-2.7,1.9-4.9,4.5-5.5c0.5-0.1,1.1,0.2,1.2,0.8
	c0.1,0.5-0.2,1.1-0.8,1.2c0,0,0,0,0,0c-1.7,0.4-2.9,1.9-2.9,3.7c-0.1,2.7-1.9,4.9-4.5,5.5C23.2,50.8,23.1,50.8,23.1,50.8z"/>
<path d="M33.1,63H20.6c-2.2,0-3.9-1.8-3.9-3.9V32c0-1.9,0.7-3.8,2-5.3l1.3-1.5c1.1-1.3,1.8-3,1.8-4.7v-5.8c0-0.6,0.4-1,1-1H31
	c0.6,0,1,0.4,1,1v5.8c0,1.7,0.6,3.4,1.8,4.7l1.3,1.5c1.3,1.5,2,3.4,2,5.3v27.1C37,61.2,35.2,63,33.1,63z M23.6,15.7v4.8
	c0,2.2-0.8,4.4-2.3,6L20.1,28c-1,1.1-1.5,2.5-1.5,4v27.1c0,1.1,0.9,1.9,1.9,1.9h12.5c1.1,0,1.9-0.9,1.9-1.9V32c0-1.5-0.5-2.9-1.5-4
	l-1.3-1.5c-1.5-1.7-2.3-3.8-2.3-6v-4.8H23.6z"/>
<path d="M31,15.7h-8.3c-0.6,0-1-0.4-1-1v-3.8c0-0.6,0.4-1,1-1H31c0.6,0,1,0.4,1,1v3.8C32,15.2,31.5,15.7,31,15.7z M23.6,13.7H30
	v-1.8h-6.3V13.7z"/>
<path d="M32.7,8.6h-9.6c-2.1,0-3.8-1.7-3.8-3.8C19.3,2.7,21,1,23.1,1h11.6c4.2,0,8.4,1.1,12.1,3.1c0.5,0.3,0.7,0.9,0.4,1.4
	c-0.1,0.1-0.2,0.2-0.3,0.3l-3.2,2.5c-0.3,0.2-0.6,0.3-0.9,0.2L42,8.2c-2.3-0.7-4.7-1.1-7.1-1.1h-0.3l-1.2,1.2
	C33.2,8.5,32.9,8.6,32.7,8.6z M23.1,3c-1,0-1.8,0.8-1.8,1.8c0,1,0.8,1.8,1.8,1.8h9.2l1.2-1.2c0.2-0.2,0.4-0.3,0.7-0.3h0.7
	c2.6,0,5.2,0.4,7.7,1.2l0.3,0.1l1.6-1.2C41.4,3.7,38.1,3,34.7,3H23.1z"/>
<path d="M29.9,11.9h-6.2c-0.6,0-1-0.4-1-1V7.6c0-0.6,0.4-1,1-1h6.2c0.6,0,1,0.4,1,1v3.3C30.9,11.5,30.5,11.9,29.9,11.9
	C29.9,11.9,29.9,11.9,29.9,11.9z M24.7,9.9h4.2V8.6h-4.2L24.7,9.9z"/>
<path d="M36,56H17.6c-0.6,0-1-0.4-1-1V35.3c0-0.6,0.4-1,1-1H36c0.6,0,1,0.4,1,1V55C37,55.6,36.6,56,36,56z M18.6,54H35V36.3H18.6
	L18.6,54z"/>
</svg>
